<svg width="413" height="346" viewBox="0 0 413 346" fill="none" xmlns="http://www.w3.org/2000/svg">
<g clip-path="url(#clip0)">
<path d="M50.0425 340.871C27.172 326.806 24.3639 293.523 22.3096 268.497C16.4284 197.91 44.1447 112.871 112.011 55.9513C138.46 33.771 195.591 -14.2629 237.041 4.08692C296.682 30.4783 256.201 153.831 342.605 222.101C364.656 239.533 387.518 247.409 389.125 267.67C391.27 294.723 354.053 325.532 316.661 336.469C261.61 352.569 243.461 315.786 171.701 320.386C105.749 324.622 78.9931 358.699 50.0425 340.871Z" fill="#F2F2F2"/>
<path d="M162.83 59.5006V37.9904C162.834 34.0627 164.399 30.2973 167.18 27.5208C169.962 24.7442 173.733 23.1836 177.665 23.1814H235.335C239.267 23.1836 243.038 24.7442 245.82 27.5208C248.601 30.2973 250.166 34.0627 250.17 37.9904V59.5006C250.199 63.2162 248.82 66.8053 246.31 69.5475C243.799 72.2897 240.343 73.982 236.635 74.2847V88.0512C236.6 88.7328 236.386 89.3932 236.015 89.9666C235.645 90.5399 235.13 91.0063 234.523 91.3191C234.048 91.4643 233.552 91.5231 233.057 91.4929C232.603 91.4965 232.154 91.4099 231.734 91.238C231.314 91.0661 230.933 90.8125 230.613 90.4918L214.17 74.3178H177.665C173.731 74.3156 169.959 72.7538 167.177 69.9755C164.396 67.1972 162.832 63.4297 162.83 59.5006V59.5006Z" fill="white"/>
<path d="M414 67.2608V182.787L352.09 211.28L342.39 187.718L307.889 199.449L305.553 192.69L298.181 195.379C298.065 195.52 297.941 195.652 297.825 195.784C294.072 199.922 289.831 203.589 285.193 206.705C283.113 208.136 281.482 209.104 280.819 209.493L283.163 214.722C283.458 215.385 283.627 216.098 283.66 216.823V216.964C283.726 219.305 283.544 223.665 281.564 226.56C278.798 230.623 273.405 234.246 263.266 229.042C265.014 232.455 265.515 236.37 264.683 240.112C264.499 240.846 264.258 241.566 263.962 242.263L263.888 242.428C260.732 249.618 251.686 250.544 248.091 249.916C248.48 251.299 248.563 252.749 248.336 254.168C248.108 255.586 247.576 256.938 246.774 258.131C246.401 258.735 245.983 259.31 245.523 259.852C240.503 265.792 233.521 263.988 232.17 263.533C230.846 263.051 229.599 262.379 228.468 261.539C228.086 263.445 227.307 265.249 226.181 266.834C225.372 267.975 224.294 268.9 223.044 269.528C221.793 270.157 220.408 270.471 219.008 270.441H218.784C214.758 270.423 210.79 269.481 207.188 267.686C205.407 268.778 202.714 270.408 199.484 272.278C197.904 273.173 196.115 273.633 194.299 273.61C192.107 273.56 189.948 273.076 187.945 272.187C187.926 272.193 187.906 272.193 187.887 272.187C187.681 272.113 187.481 272.021 187.291 271.914C187.23 271.9 187.173 271.872 187.125 271.831L186.711 271.616C186.675 271.606 186.641 271.589 186.611 271.566L186.38 271.434C186.066 271.256 185.764 271.057 185.477 270.838C183.698 269.518 182.447 267.609 181.948 265.453C180.424 265.907 178.842 266.138 177.251 266.139C174.421 266.178 171.651 265.327 169.332 263.707C168.943 263.426 168.603 263.161 168.289 262.88C164.876 259.992 164.52 257.03 164.569 255.665C162.321 256.615 159.911 257.126 157.47 257.171C156.544 257.173 155.62 257.081 154.712 256.898C153.475 256.637 152.303 256.131 151.266 255.409C149.673 254.288 148.453 252.717 147.76 250.898C147.068 249.079 146.936 247.094 147.381 245.2C147.654 244.05 148.027 242.718 148.516 241.237C147.717 242.257 146.629 243.012 145.393 243.405C144.93 243.537 144.45 243.604 143.968 243.603C142.752 243.55 141.563 243.225 140.489 242.652L140.291 242.561C136.281 240.707 132.256 234.949 131.85 230.482C131.659 228.455 132.239 226.916 133.506 226.006C134.079 225.545 134.784 225.278 135.519 225.245C128.462 219.561 123.309 215.516 120.187 213.224L103.23 205.116L100.132 211.876L66.9324 196.818L54.996 219.338L14.3244 195.619C13.8504 195.695 13.3713 195.733 12.8913 195.735H12.444C10.6985 195.653 9.01571 195.06 7.60481 194.03C6.19391 193.001 5.11717 191.579 4.50848 189.943L-1 186.684V64.9608L59.5685 101.536L105.699 123.791L104.117 126.77L132.86 140.594L131.394 143.796L149.833 151.854L175.338 145.922L201.588 131.733C203.664 130.61 206.03 130.134 208.38 130.368L261.245 135.688L283.064 127.638L282.235 125.289L312.18 114.318L310.896 111.191L359.015 93.5115L414 67.2608Z" fill="white"/>
<path d="M207.511 267.537L207.146 267.761C205.365 268.853 202.673 270.483 199.443 272.352C197.863 273.248 196.073 273.708 194.257 273.684C192.066 273.634 189.906 273.151 187.904 272.261C187.885 272.268 187.865 272.268 187.846 272.261L187.249 271.988C187.188 271.974 187.131 271.946 187.084 271.906L186.669 271.69C186.633 271.681 186.6 271.664 186.57 271.641L186.338 271.508L186.752 270.805C186.837 270.861 186.926 270.911 187.017 270.954C187.628 271.265 188.256 271.541 188.898 271.781C191.184 272.65 194.945 273.569 198.299 272.021C198.546 271.91 198.787 271.786 199.02 271.649C201.969 269.945 204.479 268.431 206.243 267.347L207.072 266.851L207.511 267.537Z" fill="#1D2433"/>
<path d="M137.093 225.452L136.596 226.072L135.586 225.245C128.528 219.561 123.376 215.516 120.253 213.224L103.297 205.116L102.642 204.802L102.999 204.057L103.645 204.364L120.684 212.521C123.997 214.953 129.431 219.222 136.911 225.253L137.093 225.452Z" fill="#1D2433"/>
<path d="M281.548 226.56C278.781 230.623 273.389 234.246 263.25 229.042C264.997 232.455 265.498 236.37 264.666 240.112C264.482 240.847 264.241 241.566 263.946 242.263L263.871 242.428C260.715 249.618 251.67 250.544 248.075 249.916C248.463 251.299 248.547 252.749 248.319 254.168C248.092 255.586 247.559 256.938 246.757 258.131C246.384 258.735 245.966 259.31 245.507 259.852C240.487 265.792 233.504 263.988 232.154 263.533C230.829 263.051 229.582 262.38 228.451 261.539C228.07 263.445 227.291 265.249 226.165 266.834C225.355 267.975 224.278 268.9 223.027 269.529C221.777 270.157 220.391 270.471 218.991 270.441H218.768C214.742 270.423 210.774 269.481 207.171 267.686C206.881 267.554 206.575 267.413 206.276 267.256C205.68 266.969 205.067 266.655 204.437 266.313C203.485 265.8 202.433 265.204 201.041 264.377L200.561 264.088L200.055 263.79L200.486 263.086L200.809 263.277L201.464 263.666C202.847 264.493 203.882 265.08 204.835 265.585C209.308 268.001 213.4 269.614 218.801 269.614H219.016C220.29 269.636 221.549 269.346 222.684 268.769C223.819 268.192 224.796 267.346 225.527 266.305C226.638 264.725 227.384 262.92 227.714 261.018C227.747 260.831 227.764 260.731 227.764 260.72L227.855 259.984L228.103 260.183L228.435 260.447C229.647 261.393 230.992 262.154 232.427 262.706C233.686 263.111 240.214 264.824 244.902 259.289C245.333 258.765 245.729 258.212 246.087 257.634C248.514 253.713 247.486 250.47 247.147 249.626L247.072 249.452L247.031 249.279V248.708L247.578 248.881C250.179 249.709 259.961 249.179 263.109 242.006L263.184 241.841C263.461 241.194 263.683 240.524 263.846 239.839C265.288 234.048 262.446 229.084 261.866 228.19L259.762 226.172L262.405 227.669L262.703 227.826C270.796 232.252 277.067 231.657 280.869 226.072C282.774 223.268 282.865 218.767 282.815 216.972C282.808 216.925 282.808 216.878 282.815 216.831C282.783 216.236 282.645 215.65 282.409 215.102V215.036L279.924 209.526V209.476L280.686 209.146L280.836 209.485L283.18 214.713C283.475 215.377 283.643 216.089 283.677 216.815V216.955C283.71 219.305 283.536 223.69 281.548 226.56Z" fill="#1D2433"/>
<path d="M176.58 146.509L175.636 146.733L172.596 147.428L149.75 152.714L131.046 144.549L130.384 144.259L130.715 143.498L131.394 143.796L149.833 151.854L175.338 145.955L176.39 145.707L176.522 146.253L176.58 146.509Z" fill="#1D2433"/>
<path d="M306.042 192.508L305.553 192.69L298.181 195.379C298.065 195.52 297.941 195.652 297.825 195.784C294.072 199.922 289.831 203.589 285.193 206.705C283.113 208.136 281.482 209.104 280.819 209.493L280.496 209.683L280.181 209.857L279.933 209.534L278.475 207.665C277 205.772 275.185 204.17 273.124 202.941L205.755 162.601C204.512 161.854 203.031 161.608 201.613 161.914C201.377 161.962 201.144 162.025 200.917 162.104L189.933 165.893C189.742 165.952 189.557 166.027 189.378 166.117C188.76 166.398 188.198 166.791 187.721 167.275C187.438 167.566 187.186 167.884 186.968 168.226C178.659 181.364 170.053 184.946 164.255 185.633C163.496 185.725 162.732 185.772 161.968 185.774C160.508 185.778 159.053 185.62 157.628 185.302C156.97 185.15 156.354 184.858 155.821 184.445C155.287 184.032 154.85 183.509 154.538 182.911C154.225 182.315 154.044 181.659 154.005 180.987C153.967 180.315 154.072 179.643 154.314 179.015L165.621 154.311C166.652 151.764 168.538 149.655 170.956 148.346L172.612 147.452L175.354 145.98L201.605 131.791C203.681 130.667 206.047 130.192 208.397 130.426L261.262 135.746L283.08 127.696L283.677 127.473L283.967 128.25L283.354 128.474L261.369 136.59H261.278L208.314 131.262C206.128 131.037 203.924 131.478 201.994 132.528L176.522 146.253L175.636 146.733L171.337 149.049C169.084 150.27 167.327 152.235 166.367 154.609L155.06 179.312C154.855 179.829 154.764 180.385 154.792 180.94C154.821 181.496 154.97 182.038 155.228 182.531C155.486 183.024 155.847 183.456 156.287 183.797C156.726 184.138 157.235 184.381 157.777 184.508C159.136 184.814 160.525 184.964 161.919 184.955C162.652 184.953 163.386 184.906 164.114 184.814C169.722 184.144 178.121 180.677 186.272 167.788C186.506 167.394 186.784 167.028 187.1 166.696C187.648 166.146 188.287 165.695 188.989 165.364C189.188 165.273 189.403 165.182 189.618 165.107L200.702 161.318C200.973 161.23 201.25 161.158 201.53 161.103C203.147 160.772 204.829 161.068 206.235 161.93L241.804 183.226L243.593 184.301L273.604 202.262C275.754 203.544 277.647 205.213 279.187 207.185L280.454 208.839C281.101 208.467 282.708 207.499 284.787 206.084C289.348 203.014 293.52 199.402 297.212 195.329L297.618 194.734L297.684 194.651L305.28 191.871L305.76 191.697L306.042 192.508Z" fill="#1D2433"/>
<path d="M339.557 180.272L339.267 179.494L372.003 167.531L348.346 104.465L313.804 117.214L313.522 116.436L348.826 103.398L373.072 168.02L339.557 180.272Z" fill="#1D2433"/>
<path d="M104.117 126.77L103.744 126.588L103.371 126.414L92.6939 121.276L54.3665 190.638L54.1511 191.027L66.187 196.487L66.5597 196.653L66.9407 196.827L100.141 211.884L103.239 205.125L103.587 204.372L131.046 144.549L131.394 143.796L132.86 140.594L104.117 126.77ZM99.7266 210.792L67.3383 196.099L66.9573 195.925L66.5846 195.751L55.3191 190.647L93.017 122.36L102.957 127.142L103.33 127.324L103.703 127.498L131.775 140.958L99.7266 210.792Z" fill="#1D2433"/>
<path d="M150.661 236.141C150.44 235.106 149.942 234.151 149.22 233.378C147.257 230.906 144.842 228.829 142.105 227.255C140.52 226.217 138.728 225.537 136.853 225.262C136.412 225.212 135.968 225.212 135.528 225.262C134.793 225.295 134.087 225.561 133.515 226.023C132.239 226.933 131.659 228.505 131.858 230.498C132.264 234.966 136.29 240.724 140.299 242.577L140.498 242.668C141.571 243.241 142.76 243.567 143.977 243.62C144.459 243.621 144.938 243.554 145.401 243.421C146.637 243.029 147.725 242.273 148.524 241.254C148.524 241.254 148.524 241.254 148.524 241.254C148.764 240.964 148.972 240.699 149.137 240.468C150.128 239.389 150.688 237.985 150.711 236.521C150.694 236.381 150.678 236.257 150.661 236.141ZM148.466 239.955C148.087 240.486 147.66 240.982 147.191 241.436C146.625 241.991 145.931 242.397 145.169 242.619C143.691 242.927 142.15 242.677 140.845 241.915L140.638 241.816C136.853 240.071 133.059 234.627 132.67 230.407C132.545 229.716 132.606 229.004 132.848 228.343C133.09 227.683 133.503 227.099 134.045 226.651C134.657 226.211 135.405 226 136.157 226.056C136.284 226.048 136.411 226.048 136.538 226.056H136.596C138.412 226.285 140.149 226.931 141.674 227.942C144.334 229.462 146.677 231.478 148.574 233.882C149.287 234.601 149.744 235.534 149.874 236.538C149.836 237.81 149.336 239.024 148.466 239.955Z" fill="#1D2433"/>
<path d="M164.072 229.828C161.955 229.007 159.62 228.929 157.452 229.605C155.284 230.281 153.409 231.673 152.136 233.551C151.597 234.379 151.1 235.272 150.661 236.141C149.823 237.785 149.106 239.489 148.516 241.237C148.516 241.237 148.516 241.237 148.516 241.237C148.027 242.693 147.688 244.05 147.381 245.2C146.931 247.092 147.057 249.076 147.743 250.897C148.43 252.717 149.645 254.291 151.233 255.417C152.27 256.139 153.442 256.645 154.679 256.906C155.587 257.089 156.511 257.181 157.437 257.179C159.878 257.135 162.288 256.623 164.536 255.674C164.934 255.5 165.174 255.376 165.215 255.351L165.348 255.285L165.406 255.152L171.022 242.519V242.395C171.087 241.863 171.12 241.327 171.121 240.79C171.262 234.627 167.676 231.136 164.072 229.828ZM164.71 254.689C162.41 255.732 159.921 256.295 157.396 256.344C156.541 256.347 155.689 256.261 154.853 256.087C153.722 255.846 152.651 255.38 151.703 254.718C150.756 254.056 149.951 253.21 149.336 252.232C148.695 251.225 148.262 250.1 148.064 248.924C147.867 247.747 147.908 246.543 148.185 245.382C149.096 241.353 150.666 237.501 152.832 233.982C153.656 232.737 154.781 231.72 156.103 231.024C157.424 230.329 158.9 229.977 160.394 230.002C161.555 230.004 162.707 230.205 163.799 230.598C167.394 231.872 170.972 235.562 170.252 242.18L164.71 254.689Z" fill="#1D2433"/>
<path d="M188.972 241.436C188.279 240.138 187.326 238.997 186.174 238.082C185.021 237.167 183.693 236.498 182.271 236.116C182.121 236.067 181.969 236.025 181.815 235.992C176.481 234.627 172.778 238.565 171.171 240.774C170.847 241.22 170.549 241.684 170.277 242.164V242.221L164.735 254.689L164.644 254.896C164.59 255.155 164.562 255.418 164.561 255.682C164.511 257.047 164.867 260.009 168.28 262.896C168.595 263.169 168.935 263.434 169.324 263.723C171.643 265.344 174.413 266.195 177.243 266.156C178.833 266.155 180.416 265.924 181.94 265.469C182.109 265.425 182.275 265.37 182.437 265.304L182.569 265.237L182.685 264.998L188.16 253.622L188.931 251.967L189.42 250.958V250.908C189.977 249.378 190.224 247.753 190.147 246.127C190.07 244.501 189.671 242.906 188.972 241.436V241.436ZM188.641 250.644L181.948 264.551C181.012 264.882 175.015 266.702 169.796 263.004C169.432 262.739 169.1 262.491 168.802 262.234C164.66 258.726 165.414 255.202 165.422 255.128L171.039 242.495C171.262 242.089 174.402 236.53 179.662 236.53C180.321 236.533 180.978 236.619 181.617 236.786C181.757 236.817 181.895 236.856 182.031 236.902C183.354 237.247 184.591 237.86 185.666 238.704C186.74 239.549 187.629 240.605 188.276 241.808C188.918 243.184 189.281 244.673 189.343 246.189C189.406 247.706 189.167 249.22 188.641 250.644V250.644Z" fill="#1D2433"/>
<path d="M194.779 250.743C193.766 250.553 192.725 250.566 191.717 250.781C190.709 250.995 189.754 251.407 188.906 251.992C188.422 252.308 187.96 252.656 187.523 253.035L181.948 264.551L181.824 264.807V264.923C181.843 265.093 181.874 265.262 181.915 265.428C182.414 267.584 183.664 269.494 185.444 270.814C185.731 271.032 186.032 271.231 186.346 271.409C186.417 271.462 186.492 271.509 186.57 271.55C186.6 271.573 186.633 271.59 186.669 271.599L187.084 271.815C187.131 271.855 187.188 271.883 187.249 271.897C187.44 272.005 187.64 272.096 187.846 272.17C187.865 272.177 187.885 272.177 187.904 272.17C188.069 272.248 188.237 272.317 188.409 272.377C190.004 272.942 191.687 273.222 193.379 273.204C194.422 273.202 195.461 273.103 196.485 272.907C196.98 272.815 197.469 272.699 197.952 272.559L198.192 272.493L198.241 272.253C198.241 272.129 198.299 272.013 198.333 271.889C198.763 270.086 199.269 268.257 199.824 266.454C200.113 265.519 200.354 264.725 200.561 264.046C200.652 263.757 200.735 263.492 200.809 263.219C201.058 262.391 201.24 261.738 201.389 261.192C201.687 260.092 201.836 259.413 202.027 258.453C202.358 256.592 199.227 251.636 194.779 250.743ZM201.19 258.387C200.642 261.066 199.926 263.708 199.045 266.296C198.473 268.158 197.952 270.044 197.512 271.914C197.123 272.013 196.734 272.104 196.353 272.179C193.888 272.677 191.335 272.523 188.947 271.732L188.732 271.657C188.159 271.448 187.605 271.19 187.075 270.888C186.984 270.845 186.895 270.795 186.81 270.739C186.523 270.571 186.247 270.386 185.982 270.185C184.273 268.921 183.092 267.07 182.669 264.989V264.989L188.144 253.614C190.264 251.81 192.443 251.132 194.622 251.562C198.813 252.398 201.447 257.088 201.19 258.387Z" fill="#1D2433"/>
<path d="M352.413 175.565L352.081 174.804L325.376 112.937L325.044 112.176L324.257 110.347L324.1 109.992L312.975 114.062L312.586 114.211L312.197 114.352L282.252 125.322L283.08 127.671L283.354 128.449L305.296 191.904L305.57 192.69L307.906 199.449L342.406 187.685L342.796 187.553L343.185 187.42L355.685 183.151L352.413 175.565ZM342.854 186.651L342.464 186.783L342.075 186.916L308.386 198.399L283.296 125.818L312.528 115.113L312.917 114.972L313.307 114.831L323.669 111.034L324.282 112.465L324.613 113.218L351.328 175.085L351.651 175.846L354.591 182.655L342.854 186.651Z" fill="#1D2433"/>
<path d="M413.586 67.9143V182.522L352.305 210.692L342.622 187.172L339.59 179.809L335.15 169.012L328.026 151.705L326.22 147.312L313.663 116.817L312.743 114.591L311.459 111.464L359.172 93.9334L413.586 67.9143Z" fill="#1D2433"/>
<path d="M359.031 93.5446L310.913 111.224L312.197 114.352L312.511 115.113L342.075 186.915L342.39 187.685L352.09 211.28L414 182.82V67.2607L359.031 93.5446ZM413.172 182.258L352.52 210.138L343.177 187.42L342.862 186.651L340.145 180.032L339.83 179.271L314.185 117.057L313.87 116.287L313.265 114.831L312.95 114.062L311.981 111.704L359.329 94.3305L413.172 68.5927V182.258Z" fill="#1D2433"/>
<path d="M101.334 131.138L86.9618 158.216L84.7418 162.41L70.602 189.05L66.7585 196.289L54.8304 218.767L14.3906 195.18L4.84812 189.612L-0.585815 186.444V65.6971L59.3531 101.892L105.136 123.973L103.554 126.952L101.334 131.138Z" fill="#1D2433"/>
<path d="M59.5685 101.536L-1 64.9608V186.684L4.50848 189.894L5.09661 190.241L5.73443 190.605L13.0818 194.899L13.7279 195.271L14.3244 195.619L54.996 219.338L66.9407 196.827L67.33 196.099L103.727 127.498L104.117 126.77L105.699 123.791L59.5685 101.536ZM15.4923 195.346L14.987 195.048L14.4735 194.75L5.21257 189.331L4.69072 189.033L4.19371 188.744L-0.171657 186.204V66.4334L59.1709 102.264L104.564 124.155L103.371 126.414L102.982 127.142L66.5763 195.751L66.1869 196.488L54.6647 218.196L15.4923 195.346Z" fill="#1D2433"/>
<path d="M21.3736 187.238C21.2914 188.914 20.7135 190.529 19.713 191.877C18.7124 193.226 17.3341 194.247 15.7522 194.814C14.1703 195.38 12.4559 195.465 10.8255 195.058C9.1952 194.652 7.72217 193.771 6.59261 192.529C5.46304 191.286 4.72765 189.737 4.47938 188.077C4.23111 186.417 4.4811 184.721 5.19776 183.203C5.91441 181.685 7.06557 180.413 8.50573 179.548C9.94589 178.684 11.6104 178.265 13.2889 178.344C14.4047 178.397 15.4991 178.67 16.5094 179.145C17.5198 179.621 18.4264 180.291 19.1772 181.117C19.9281 181.943 20.5086 182.909 20.8854 183.959C21.2623 185.01 21.4282 186.124 21.3736 187.238V187.238Z" fill="#1D2433"/>
<path d="M19.4849 180.843C18.3005 179.538 16.755 178.613 15.0441 178.186C13.3332 177.758 11.5338 177.847 9.87363 178.441C8.21344 179.036 6.76711 180.109 5.71769 181.524C4.66827 182.94 4.06295 184.635 3.97833 186.394C3.93559 187.183 4.00249 187.974 4.17714 188.744C4.17714 188.934 4.25997 189.116 4.30967 189.298C4.35937 189.48 4.43392 189.695 4.50847 189.894C5.11716 191.53 6.1939 192.951 7.6048 193.981C9.0157 195.01 10.6985 195.603 12.444 195.685H12.8913C13.3713 195.684 13.8504 195.645 14.3243 195.569C14.5342 195.536 14.733 195.495 14.9207 195.445C15.1113 195.404 15.3018 195.354 15.484 195.296C16.9184 194.854 18.2181 194.058 19.2631 192.982C20.308 191.906 21.0644 190.584 21.4623 189.138C21.8603 187.693 21.887 186.17 21.5399 184.712C21.1928 183.253 20.4832 181.905 19.4766 180.793L19.4849 180.843ZM20.9511 187.222C20.8574 189.017 20.1696 190.73 18.9958 192.092C17.8219 193.455 16.2284 194.39 14.4652 194.75C14.2498 194.792 14.0344 194.825 13.8108 194.849C13.5871 194.874 13.322 194.891 13.0735 194.899C12.825 194.907 12.6759 194.899 12.4771 194.899C11.4131 194.852 10.3691 194.594 9.4062 194.14C8.4433 193.685 7.58083 193.043 6.86925 192.252C6.41165 191.753 6.02174 191.197 5.70957 190.597C5.59236 190.387 5.48995 190.168 5.40308 189.943C5.30998 189.743 5.23244 189.535 5.17115 189.323C4.69239 187.841 4.65268 186.252 5.05681 184.747C5.46093 183.243 6.29168 181.887 7.44909 180.843C8.93036 179.495 10.8625 178.748 12.8665 178.75H13.2723C15.3454 178.858 17.2979 179.757 18.7267 181.261C20.1556 182.765 20.9518 184.759 20.9511 186.833C20.9511 186.965 20.9511 187.089 20.9511 187.222Z" fill="white"/>
<path d="M246.02 184.409C244.517 184.414 243.017 184.259 241.547 183.945L241.729 183.118C246.557 184.208 251.619 183.439 255.904 180.966C260.19 178.492 263.384 174.495 264.848 169.773L265.677 170.022C264.014 175.207 260.391 179.54 255.579 182.1C252.628 183.634 249.347 184.426 246.02 184.409V184.409Z" fill="#1D2433"/>
<path d="M228.169 261.44C228.107 261.441 228.045 261.427 227.989 261.4C227.933 261.373 227.884 261.333 227.846 261.283L222.454 254.606C222.396 254.52 222.374 254.415 222.39 254.313C222.406 254.211 222.46 254.118 222.541 254.054C222.622 253.989 222.725 253.957 222.828 253.965C222.932 253.972 223.029 254.018 223.1 254.093L228.492 260.77C228.56 260.856 228.591 260.965 228.579 261.073C228.566 261.182 228.512 261.281 228.426 261.349C228.353 261.407 228.263 261.439 228.169 261.44V261.44Z" fill="#1D2433"/>
<path d="M247.445 249.891C247.383 249.89 247.322 249.875 247.266 249.848C247.21 249.821 247.161 249.782 247.122 249.734L240.197 241.262C240.162 241.219 240.136 241.171 240.12 241.118C240.104 241.066 240.099 241.011 240.104 240.956C240.11 240.902 240.126 240.849 240.152 240.8C240.177 240.752 240.213 240.709 240.255 240.674C240.297 240.64 240.346 240.614 240.399 240.598C240.451 240.582 240.506 240.576 240.561 240.582C240.616 240.587 240.669 240.603 240.717 240.629C240.765 240.655 240.808 240.69 240.843 240.732L247.76 249.212C247.795 249.254 247.821 249.302 247.837 249.354C247.853 249.406 247.859 249.46 247.853 249.514C247.848 249.568 247.832 249.62 247.806 249.668C247.78 249.716 247.744 249.758 247.702 249.791C247.631 249.855 247.54 249.89 247.445 249.891V249.891Z" fill="#1D2433"/>
<path d="M262.761 228.852C262.665 228.851 262.572 228.819 262.496 228.761L259.133 225.973C259.05 225.901 258.998 225.8 258.987 225.691C258.976 225.582 259.008 225.472 259.075 225.386C259.147 225.302 259.249 225.251 259.359 225.241C259.469 225.232 259.578 225.266 259.663 225.336L263.026 228.124C263.068 228.158 263.103 228.201 263.128 228.249C263.153 228.297 263.169 228.349 263.173 228.403C263.178 228.457 263.172 228.512 263.155 228.563C263.138 228.615 263.111 228.662 263.076 228.703C263.038 228.75 262.99 228.788 262.936 228.814C262.881 228.84 262.821 228.853 262.761 228.852V228.852Z" fill="#1D2433"/>
<path d="M235.335 23.2145H177.665C173.733 23.2167 169.962 24.7773 167.18 27.5538C164.399 30.3303 162.834 34.0958 162.83 38.0234V59.5336C162.832 63.4627 164.396 67.2303 167.177 70.0086C169.959 72.7869 173.731 74.3487 177.665 74.3509H214.17L230.613 90.4918C230.933 90.8124 231.314 91.0661 231.734 91.238C232.154 91.4099 232.603 91.4965 233.057 91.4929C233.552 91.5231 234.048 91.4643 234.523 91.3191C235.13 91.0063 235.645 90.5399 236.015 89.9665C236.386 89.3932 236.6 88.7328 236.635 88.0512V74.2847C240.343 73.9819 243.799 72.2896 246.31 69.5474C248.82 66.8053 250.199 63.2162 250.17 59.5005V37.9903C250.157 34.0684 248.589 30.3115 245.808 27.5421C243.027 24.7728 239.261 23.2166 235.335 23.2145V23.2145ZM249.342 59.5005C249.369 63.0724 248.019 66.5176 245.571 69.1221C243.124 71.7266 239.767 73.2908 236.196 73.4905H235.807V88.0264C235.77 88.5428 235.602 89.0413 235.32 89.4753C235.037 89.9094 234.649 90.2648 234.192 90.5083C233.82 90.5983 233.438 90.6318 233.057 90.6076C232.712 90.613 232.37 90.5483 232.051 90.4175C231.732 90.2866 231.443 90.0924 231.201 89.8465L214.51 73.4325H177.665C173.951 73.4303 170.39 71.9557 167.763 69.3326C165.137 66.7094 163.66 63.1523 163.658 59.4426V37.9324C163.662 34.2242 165.14 30.6692 167.766 28.0478C170.392 25.4265 173.952 23.953 177.665 23.9508H235.335C239.047 23.953 242.608 25.4265 245.234 28.0478C247.86 30.6692 249.338 34.2242 249.342 37.9324V59.5005Z" fill="#1D2433"/>
<path d="M223.067 42.5737L204.984 60.7746C204.194 61.5078 203.155 61.9131 202.077 61.9081C201.033 61.9125 200.03 61.5051 199.285 60.7746L189.42 50.913C189.033 50.5362 188.726 50.0858 188.516 49.5886C188.306 49.0913 188.198 48.5571 188.198 48.0174C188.198 47.4778 188.306 46.9436 188.516 46.4463C188.726 45.949 189.033 45.4987 189.42 45.1218C190.189 44.3933 191.209 43.9872 192.269 43.9872C193.329 43.9872 194.349 44.3933 195.119 45.1218L202.077 52.1954L217.376 36.9066C218.143 36.2278 219.14 35.8666 220.165 35.8966C221.189 35.9267 222.163 36.3458 222.889 37.0684C223.614 37.791 224.037 38.7629 224.07 39.7858C224.103 40.8087 223.744 41.8058 223.067 42.5737V42.5737Z" stroke="#1D2433" stroke-miterlimit="10"/>
</g>
<defs>
<clipPath id="clip0">
<rect width="415" height="346" fill="white" transform="translate(-1)"/>
</clipPath>
</defs>
</svg>
