<svg width="186" height="186" viewBox="0 0 186 186" fill="none" xmlns="http://www.w3.org/2000/svg">
<path d="M86.7314 93.6428C86.7314 102.603 86.7314 111.562 86.7314 120.567H55.7998V56.0026C55.7998 43.846 59.5368 33.8056 67.0559 25.8814C74.5299 17.9121 83.985 13.95 95.3761 13.95C107.938 13.95 118.428 19.3529 126.848 30.1587L101.499 48.6636C100.059 44.7015 97.5823 42.7204 93.9353 42.7204C89.1627 42.7204 86.7765 46.0072 86.7765 52.6257C86.7765 56.858 86.7765 61.0453 86.7765 65.2776C86.7314 74.7326 86.7314 84.1877 86.7314 93.6428Z" fill="#1D2433"/>
<path d="M95.9163 68.5637V83.4667H126.848V68.5637H95.9163V68.5637ZM95.9163 92.6066V136.415C95.9163 143.034 93.53 146.321 88.7574 146.321C85.1555 146.321 82.6341 144.339 81.2384 140.377L55.8447 158.927C64.2643 169.733 74.7549 175.136 87.3166 175.136C98.7078 175.136 108.118 171.174 115.637 163.205C123.111 155.235 126.893 145.195 126.893 133.083V92.6066H95.9163V92.6066Z" fill="#1D2433"/>
</svg>
