<svg width="287" height="343" viewBox="0 0 287 343" fill="none" xmlns="http://www.w3.org/2000/svg">
<path d="M269.937 71.435C255.035 48.4772 229.267 31.8588 201.706 24.0587L198.072 38.0903C198.374 37.5019 198.862 37.031 199.459 36.7519C201.223 35.9927 202.427 36.5396 202.982 37.2376C203.778 35.9819 204.659 35.1868 205.882 34.7551C208.792 33.7261 210.766 36.4281 211.562 38.8314C212.842 42.6955 211.996 46.2214 210.766 46.7467C210.088 47.0524 209.326 47.1193 208.605 46.9365C207.883 46.7536 207.245 46.3318 206.792 45.7393C206.706 46.7934 206.555 47.6713 204.642 48.506C201.774 49.7545 198.606 45.9875 197.857 44.0447C197.479 43.0281 197.312 41.9445 197.366 40.8606L194.499 51.9887L189.589 50.7295L196.825 22.7923C183.604 19.5542 170.096 18.3849 157.284 19.511C158.697 22.1182 159.644 24.9544 160.079 27.8904C161.871 38.5544 156.907 48.0131 148.987 49.0169C146.367 49.3479 149.951 49.114 150.395 49.114L150.08 57.1372C151.99 56.5328 158.359 58.7095 160.402 60.6775C174.551 57.9971 217.35 46.225 217.35 46.225L219.5 54.7806C218.289 55.0901 215.723 55.86 215.723 55.86C215.723 55.86 219.665 70.2514 219.328 70.1758L234.227 66.6031L236.377 75.1552L213.082 81.4155L208.781 82.5632L211.863 94.8642L177.149 103.575L177.21 103.718C194.922 99.3507 215.013 94.3641 217.418 93.5725C218.221 97.9115 220.167 101.999 209.957 105.848C204.778 107.802 204.66 105.248 197.524 106.863C195.56 107.309 191.116 109.684 185.46 112.832C187.385 122.776 187.915 130.821 187.252 133.498C185.063 142.115 137.282 150.649 127.946 147.112L128.186 154.398L113.94 157.247C113.188 157.398 112.414 157.399 111.662 157.249C110.909 157.1 110.194 156.803 109.556 156.375C108.919 155.948 108.371 155.398 107.945 154.758C107.519 154.118 107.223 153.4 107.073 152.645L91.3038 73.18C91.1535 72.4249 91.153 71.6475 91.3023 70.8922C91.4515 70.137 91.7477 69.4187 92.1737 68.7784C92.5998 68.1381 93.1475 67.5885 93.7854 67.1609C94.4233 66.7333 95.1389 66.4362 95.8913 66.2865L117.513 61.9691C119.027 61.6703 120.598 61.9855 121.881 62.8457C123.165 63.706 124.056 65.0414 124.362 66.56L125.437 72.0071C128.143 66.5492 131.967 62.1526 137.239 59.5262C136.837 54.0611 136.268 48.6068 135.232 44.0123C134.502 44.3148 133.745 44.5461 132.97 44.7031C127.878 45.6673 124.641 44.5628 119.642 45.4227C108.951 47.2899 108.664 59.3643 91.6049 61.8828C89.3808 62.2098 87.1298 62.3147 84.885 62.1958C68.3596 82.4085 54.988 106.856 42.4049 128.698C18.9446 169.429 -1.94606 201.119 0.143362 234.601C2.15036 268.154 27.0586 303.402 62.973 323.805C98.8121 344.212 145.647 349.778 183.568 332.919C184.115 332.679 184.66 332.432 185.202 332.178L184.79 329.486L195.302 326.842C227.582 307.637 252.562 271.435 269.378 226.052C288.258 175.24 296.852 112.972 269.937 71.435ZM203.086 35.4566C201.685 34.2766 199.954 26.624 204.029 26.9837C208.225 27.3435 205.072 34.0355 203.086 35.4602V35.4566ZM96.4503 323.212L75.979 285.15L87.6339 279.167L95.7945 292.08L102.246 320.143L96.4503 323.212Z" fill="#F2F2F2"/>
<path d="M185.668 112.411C187.589 122.352 188.123 130.4 187.46 133.073C185.117 142.32 130.77 151.422 126.785 145.824C123.029 140.557 108.657 73.5074 137.454 59.1484" stroke="#1D2433" stroke-miterlimit="10" stroke-linecap="round"/>
<path d="M167.896 67.866C169.485 69.8844 170.936 72.0084 172.239 74.2233" stroke="#1D2433" stroke-miterlimit="10" stroke-linecap="round"/>
<path d="M150.277 56.7272C153.931 57.1666 157.416 58.52 160.413 60.6632" stroke="#1D2433" stroke-miterlimit="10" stroke-linecap="round"/>
<path d="M150.904 61.9008C150.016 59.5406 150.188 52.0211 150.596 48.7003" stroke="#1D2433" stroke-linecap="round" stroke-linejoin="round"/>
<path d="M134.791 41.1053C136.433 46.8079 137.139 54.367 137.615 61.6994C139.049 62.955 141.816 63.4191 144.464 63.394" stroke="#1D2433" stroke-linecap="round" stroke-linejoin="round"/>
<path fill-rule="evenodd" clip-rule="evenodd" d="M189.589 50.7295L200.499 8.63477L205.358 9.9084L194.46 52.0031L189.589 50.7295Z" stroke="#1D2433" stroke-linecap="round" stroke-linejoin="round"/>
<path d="M192.56 46.7504L195.356 47.4699" stroke="#1D2433" stroke-linecap="round" stroke-linejoin="round"/>
<path d="M193.994 41.2168L196.786 41.9364" stroke="#1D2433" stroke-linecap="round" stroke-linejoin="round"/>
<path d="M195.427 35.6833L198.219 36.4029" stroke="#1D2433" stroke-linecap="round" stroke-linejoin="round"/>
<path d="M196.861 30.1499L199.653 30.8695" stroke="#1D2433" stroke-linecap="round" stroke-linejoin="round"/>
<path d="M198.294 24.6163L201.086 25.3359" stroke="#1D2433" stroke-linecap="round" stroke-linejoin="round"/>
<path d="M199.728 19.0685L202.52 19.7881" stroke="#1D2433" stroke-linecap="round" stroke-linejoin="round"/>
<path d="M201.162 13.5494L203.953 14.269" stroke="#1D2433" stroke-linecap="round" stroke-linejoin="round"/>
<path fill-rule="evenodd" clip-rule="evenodd" d="M205.882 34.7587C208.792 33.7298 210.766 36.4317 211.562 38.8351C212.842 42.6992 211.996 46.2251 210.766 46.7503C210.087 47.0557 209.325 47.122 208.604 46.9385C207.883 46.7551 207.244 46.3325 206.792 45.7393C206.706 46.7935 206.555 47.6714 204.642 48.5061C201.774 49.7545 198.606 45.9876 197.857 44.0448C196.861 41.4903 197.33 37.6766 199.47 36.7555C201.233 35.9964 202.437 36.5433 202.993 37.2412C203.778 35.9784 204.659 35.1905 205.882 34.7587Z" stroke="#1D2433" stroke-linecap="round" stroke-linejoin="round"/>
<path d="M127.853 110.094C127.598 117.797 128.272 129.853 138.773 132.293C150.861 135.102 190.596 108.061 197.732 106.449C204.867 104.837 205 107.378 210.161 105.417C220.375 101.567 218.429 97.4763 217.623 93.1409C213.304 94.5512 151.818 109.558 149.743 110.105C149.502 109.587 149.294 109.055 149.12 108.511" stroke="#1D2433" stroke-linecap="round" stroke-linejoin="round"/>
<path d="M130.813 72.5288C132.25 71.4714 133.968 70.8654 135.748 70.7874C137.725 70.671 139.696 71.1016 141.446 72.0323" stroke="#1D2433" stroke-miterlimit="10" stroke-linecap="round"/>
<path d="M151.101 88.3269C153.144 97.2172 152.815 106.384 151.571 107.525C149.062 109.842 125.254 111.526 123.473 108.896C121.91 106.593 120.914 79.7101 130.806 72.5288" stroke="#1D2433" stroke-miterlimit="10" stroke-linecap="round"/>
<path d="M216.497 80.1851L172.351 91.3384C168.304 92.3601 165.713 95.9436 166.563 99.34C167.412 102.736 171.386 104.661 175.436 103.636L219.583 92.4825" stroke="#1D2433" stroke-linecap="round" stroke-linejoin="round"/>
<path d="M212.071 94.4432L208.989 82.1422" stroke="#1D2433" stroke-linecap="round" stroke-linejoin="round"/>
<path d="M172.239 74.2234L170.498 67.3155L215.752 55.8348L219.336 70.1578L174.103 81.6313L172.239 74.2234" stroke="#1D2433" stroke-linecap="round" stroke-linejoin="round"/>
<path fill-rule="evenodd" clip-rule="evenodd" d="M154.857 62.0736L217.361 46.2107L219.511 54.7664L157.015 70.6256L154.857 62.0736Z" stroke="#1D2433" stroke-linecap="round" stroke-linejoin="round"/>
<path d="M173.358 92.7019L175.594 101.768" stroke="#1D2433" stroke-miterlimit="10" stroke-linecap="round"/>
<path d="M159.352 66.139L185.113 59.5154" stroke="#1D2433" stroke-miterlimit="10" stroke-linecap="round"/>
<path fill-rule="evenodd" clip-rule="evenodd" d="M75.979 285.15L96.4539 323.212L102.228 320.154L95.7766 292.091L87.616 279.178L75.979 285.15Z" stroke="#1D2433" stroke-miterlimit="10" stroke-linecap="round"/>
<path fill-rule="evenodd" clip-rule="evenodd" d="M186.783 342.475L229.209 334.919L228.134 328.443L199.567 325.748L184.79 329.465L186.783 342.475Z" stroke="#1D2433" stroke-miterlimit="10" stroke-linecap="round"/>
<path d="M157.535 18.9246C158.692 15.9816 159.362 14.6756 158.99 11.8045C157.37 2.97899 148.733 -0.831122 141.074 0.827482C127.785 3.70575 121.362 10.9014 113.427 12.2434C101.385 14.2654 90.1678 9.72494 77.5273 13.0709C60.3997 17.6042 57.8516 29.8836 60.346 40.9002C64.4711 59.1233 80.0826 63.2068 91.7949 61.4871C108.854 58.9686 109.145 46.8942 119.843 45.0485C124.842 44.1886 128.086 45.2896 133.171 44.329C133.946 44.1702 134.705 43.9377 135.436 43.6346" stroke="#1D2433" stroke-linecap="round" stroke-linejoin="round"/>
<path d="M155.338 16.0967C158.054 19.1297 159.534 23.0549 160.276 27.4802C162.068 38.1442 157.105 47.6029 149.188 48.6067C146.531 48.8998 143.851 48.3054 141.565 46.9158" stroke="#1D2433" stroke-linecap="round" stroke-linejoin="round"/>
<path d="M139.626 30.3406C137.594 31.4631 135.615 32.4309 133.892 33.1757" stroke="#1D2433" stroke-linecap="round" stroke-linejoin="round"/>
<path d="M155.08 14.9526C155.352 16.3918 154.7 18.0252 153.442 19.709" stroke="#1D2433" stroke-linecap="round" stroke-linejoin="round"/>
<path d="M135.906 40.0008C135.428 40.3741 134.869 40.6276 134.274 40.7403C133.679 40.8531 133.066 40.8218 132.486 40.6491C131.906 40.4764 131.375 40.1672 130.937 39.7473C130.5 39.3274 130.168 38.8087 129.971 38.2345C129.773 37.6602 129.714 37.0469 129.8 36.4453C129.885 35.8438 130.113 35.2715 130.463 34.7758C130.813 34.2801 131.276 33.8754 131.813 33.5953C132.35 33.3151 132.946 33.1676 133.551 33.1649C133.939 33.165 134.324 33.2232 134.694 33.3376" stroke="#1D2433" stroke-linecap="round" stroke-linejoin="round"/>
<path fill-rule="evenodd" clip-rule="evenodd" d="M185.314 135.8C177.468 141.917 150.611 147.313 136.071 147.529C143.07 170.372 184.79 329.487 184.79 329.487L198.273 326.094L185.314 135.8Z" fill="#1D2433"/>
<path fill-rule="evenodd" clip-rule="evenodd" d="M126.77 145.824C126.628 145.612 126.501 145.389 126.39 145.158C129.103 159.338 140.909 220.468 144.629 229.661C139.038 234.216 87.6447 279.167 87.6447 279.167L94.257 289.673L167.727 249.812L155.237 145.475C141.694 147.832 128.663 148.454 126.77 145.824Z" fill="#1D2433"/>
<path d="M128.172 154.398L113.926 157.247C113.174 157.398 112.399 157.399 111.647 157.249C110.895 157.1 110.18 156.803 109.542 156.375C108.904 155.948 108.357 155.398 107.931 154.758C107.504 154.119 107.208 153.4 107.059 152.646L91.2895 73.18C91.1392 72.425 91.1386 71.6475 91.2879 70.8923C91.4372 70.137 91.7333 69.4187 92.1594 68.7784C92.5855 68.1381 93.1331 67.5885 93.771 67.1609C94.4089 66.7333 95.1245 66.4362 95.8769 66.2866L117.499 61.9692C119.015 61.6661 120.589 61.9792 121.876 62.8399C123.163 63.7006 124.057 65.0384 124.362 66.56L125.437 72.0071" stroke="#1D2433" stroke-linecap="round" stroke-linejoin="round"/>
<path d="M123.222 68.7187C125.061 67.1811 127.238 66.1056 129.573 65.5814" stroke="#BCBCBC" stroke-linecap="round" stroke-linejoin="round"/>
<path d="M129.476 122.039C125.91 119.628 122.667 116.002 120.158 111.508" stroke="#BCBCBC" stroke-linecap="round" stroke-linejoin="round"/>
<path d="M129.573 65.5958C140.805 63.1205 152.818 74.4105 156.409 90.8166C157.843 97.3179 157.717 103.643 156.359 109.068" stroke="#BCBCBC" stroke-linecap="round" stroke-linejoin="round"/>
</svg>
