<svg width="14" height="31" viewBox="0 0 14 31" fill="none" xmlns="http://www.w3.org/2000/svg">
<path d="M6.28211 15.3146C6.28211 17.0365 6.28211 18.7583 6.28211 20.4887H0.337952V8.08128C0.337952 5.74515 1.0561 3.81568 2.50104 2.29287C3.93732 0.761406 5.75431 0 7.94336 0C10.3574 0 12.3734 1.03828 13.9913 3.11484L9.12007 6.67095C8.8432 5.90955 8.36732 5.52884 7.66648 5.52884C6.74933 5.52884 6.29076 6.16046 6.29076 7.43236C6.29076 8.24568 6.29076 9.05034 6.29076 9.86366C6.28211 11.6807 6.28211 13.4976 6.28211 15.3146Z" fill="#1D2433"/>
<path d="M8.0472 10.4952V13.3592H13.9913V10.4952H8.0472ZM8.0472 15.1156V23.5343C8.0472 24.8062 7.58862 25.4378 6.67147 25.4378C5.97929 25.4378 5.49476 25.0571 5.22654 24.2957L0.346619 27.8605C1.96461 29.937 3.9806 30.9753 6.3946 30.9753C8.58364 30.9753 10.392 30.2139 11.8369 28.6824C13.2732 27.151 14 25.2215 14 22.894V15.1156H8.0472Z" fill="#1D2433"/>
</svg>
